<?xml version="1.0" encoding="UTF-8"?>
<!-- Created with Inkscape (http://www.inkscape.org/) -->
<svg width="2498.3" height="957.67" version="1.1" viewBox="0 0 2498.3 957.67" xml:space="preserve" xmlns="http://www.w3.org/2000/svg" xmlns:cc="http://creativecommons.org/ns#" xmlns:dc="http://purl.org/dc/elements/1.1/" xmlns:rdf="http://www.w3.org/1999/02/22-rdf-syntax-ns#"><metadata><rdf:RDF><cc:Work rdf:about=""><dc:format>image/svg+xml</dc:format><dc:type rdf:resource="http://purl.org/dc/dcmitype/StillImage"/><dc:title/></cc:Work></rdf:RDF></metadata><g transform="matrix(1.3333 0 0 -1.3333 0 957.67)"><g transform="translate(-2.9881 -272.65)"><g transform="translate(843.88 627.87)"><path d="m0 0c0 25.944-20.487 40.878-43.587 46.938-19.528 5.124-40.278 5.069-60.259 3.155-14.869-1.425-29.769-4.351-43.625-10.057-17.583-7.241-33.599-19.627-41.344-37.442-7.232-16.634 2.897-36.517 22.127-35.299 10.55 0.384 23.092 3.582 16.479 15.91-2.079 3.875 2.111 12.472 3.753 16.174 5.574 12.574 16.328 22.066 29.421 26.538l-16.948-140.91c16.352-3.693 36.924 0 36.924 0l18.275 143.73c42.802-4.592 40.805-33.99 40.805-34.008-0.842-12.62-3.649-24.514-12.027-34.583-3.386-4.071-7.617-8.016-12.718-10.069-4.047-1.629-11.084-1.359-13.088-6.047-4.041-9.46 29.131-4.682 32.254-3.892 10.577 2.674 20.385 7.991 27.773 16.095 9.806 10.755 14.851 25.447 15.692 39.841 0.076 1.305 0.142 2.622 0.093 3.93" fill="#371c1a"/></g><g transform="translate(905.86 611.78)"><path d="m0 0c17.407 0 15.561-13.979 15.561-13.979 0-24-29.803-23.952-29.803-23.952-6.386 0-11.517 1.824-14.782 3.418 5.81 32.898 29.024 34.513 29.024 34.513m38.771-67.783c-12.661-12.66-39.298-12.133-39.298-12.133-29.013 0-29.804 29.277-29.804 29.277 0 0.476 0.021 0.918 0.027 1.386 11.815-4.391 26.084-5.079 26.084-5.079 50.639 0 52.486 39.826 52.486 39.826 0 32.177-41.672 32.177-41.672 32.177-61.718 0-70.685-65.937-70.685-65.937-5.539-53.276 51.958-55.914 51.958-55.914 37.189 0 53.014 29.804 53.014 29.804 6.066 14.505-2.11 6.593-2.11 6.593" fill="#371c1a"/></g><g transform="translate(1013.5 610.61)"><path d="m0 0 26.726-0.133-0.486 16.077h-24.344l3.384 28.485c-15.825 4.22-33.759 0-33.759 0l-3.355-28.485h-12.734l-1.779-15.713 12.655-0.063-8.239-69.942c-4.219-34.815 30.595-33.232 30.595-33.232 18.463 0 30.858 15.561 30.858 15.561 11.87 16.88 0 9.495 0 9.495-3.428-2.902-9.495-2.374-9.495-2.374-22.418 0-15.56 33.76-15.56 33.76z" fill="#371c1a"/></g><g transform="translate(1237.7 638.95)"><path d="m0 0s3.956 39.298-80.443 39.298c0 0-111.83-2.374-112.36-58.552 0 0-2.374-25.583 24.529-25.583 0 0 13.688-1.556 17.165 6.739 1.129 2.698 1.526 5.835 0.853 8.706-0.821 3.496-2.07 5.594-1.156 9.238 0.281 1.121 0.62 2.228 1.002 3.32 1.013 2.896 2.361 5.677 3.979 8.285 4.77 7.683 11.866 13.614 19.878 17.698 13.473 6.867 29.053 8.815 43.996 8.815 0 0 42.728 0.498 42.728-27.459 0 0 2.11-21.628-12.924-24.529 0 0-2.901 2.901-7.121 2.638 0 0-13.715-1.055-13.715-12.133 0 0 0.527-8.439 10.814-8.439 0 0 6.593 0 9.231 3.428 0 0 13.816 0.264 13.816-24.792 0 0-0.629-32.705-29.905-32.705 0 0-32.704-0.167-29.012 40.929 0.567 6.841 1.801 13.68 3.294 20.371 2.875 12.889 6.386 25.67 14.714 36.177 1.066 1.345 3.623 3.911 2.956 5.877-1.143 3.366-8.253 1.152-10.414 0.563-1e-3 0-46.42-12.661-46.42-68.311 0 0-1.845-60.936 64.091-60.936 0 0 70.421 1.593 70.421 59.09 0 0-0.264 25.847-27.166 34.815 0 0 27.166 9.231 27.166 37.452" fill="#371c1a"/></g><g transform="translate(1366.1 530.28)"><path d="m0 0c-10.286 1.055-7.121 14.77-7.121 14.77l10.286 81.498c-17.408 3.956-33.76 0-33.76 0l-7.384-60.926c-8.177-35.342-28.222-32.968-28.222-32.968-16.089 0.527-11.077 19.517-11.077 19.517l7.121 55.123c3.428 24.528-19.254 23.474-19.254 23.474-12.659 0.527-24.528-12.264-24.528-12.264-8.968-10.155 0-10.155 0-10.155 9.495-2.11 8.44-12.66 8.44-12.66l-6.643-57.233c-3.741-31.914 26.687-30.872 26.687-30.872 23.21 0 45.365 30.081 45.365 30.081-6.066-31.65 17.407-30.068 17.407-30.068 12.661 0 21.627 10.023 21.627 10.023 12.66 13.715 1.056 12.66 1.056 12.66" fill="#371c1a"/></g><g transform="translate(1766.4 522.38)"><path d="m0 0c0.667 5.024 1.204 10.034 1.726 14.924 1.845 17.304 3.817 34.594 5.738 51.889 0.25 2.255 4.79 37.211 4.147 37.357-17.407 3.957-33.759 0-33.759 0l-7.385-60.925c-8.176-35.342-28.221-32.969-28.221-32.969-16.089 0.528-11.078 19.517-11.078 19.517l7.121 55.124c3.43 24.528-19.253 23.474-19.253 23.474-12.66 0.527-24.528-12.265-24.528-12.265-8.968-10.154 0-10.154 0-10.154 9.494-2.11 8.439-12.66 8.439-12.66l-6.641-57.233c-3.742-31.913 26.686-30.872 26.686-30.872 23.21 0 45.364 30.081 45.364 30.081-0.481-18.766-4.448-42.865-18.273-56.583-15.855-15.733-39.815-4.458-54.745 6.206-1.421 1.014-3.31 3.348-5.291 3.08-6.86-0.933 0.85-17.028 3.347-20.455 6.54-8.978 16.958-14.15 27.596-16.51 4.396-0.975 8.886-1.506 13.38-1.72 10.17-0.485 20.844 2.099 29.939 6.524 25.472 12.391 32.28 38.464 35.691 64.17" fill="#371c1a"/></g><g transform="translate(1465.2 561.46)"><path d="m0 0c-0.7-3.455-1.724-6.836-3.527-10.376-2.618-5.138-6.163-9.91-10.869-13.316-4.057-2.938-8.937-4.852-13.982-4.852-21.099 0-18.726 31.122-18.726 31.122 0 40.88 29.013 42.199 29.013 42.199 10.215 0 17.264-9.997 19.6-18.962 1.262-4.843 0.766-9.812 0.113-14.704-0.527-3.949-0.904-7.569-1.622-11.111m37.066-29.804-0.14 0.08c-5.981 3.433-7.565 8.953-6.488 15.686l17.671 135.3s-17.671 5.275-34.55 0c0 0-7.988-74.207-7.998-74.301 0.414 3.84-7.403 10.837-9.919 12.882-14.686 11.934-34.579 9.901-49.467-0.05-19.365-12.942-27.781-38.043-28.884-60.382 0-1e-3 -2.374-48.067 38.243-52.254 0 0 20.277-1.947 42.153 26.66l-0.481-4.473s-5.011-22.155 18.727-22.155c0 0 19.251-1.319 26.373 12.921 2.807 5.614-0.898 7.596-5.24 10.084" fill="#371c1a"/></g><g transform="translate(1601.1 561.46)"><path d="m0 0c-0.7-3.455-1.724-6.836-3.527-10.376-2.618-5.138-6.163-9.91-10.869-13.316-4.058-2.938-8.938-4.852-13.982-4.852-21.1 0-18.726 31.122-18.726 31.122 0 40.88 29.012 42.199 29.013 42.199 10.214 0 17.264-9.997 19.6-18.962 1.262-4.843 0.766-9.812 0.113-14.704-0.528-3.949-0.905-7.569-1.622-11.111m37.066-29.804-0.14 0.08c-5.981 3.433-7.565 8.953-6.488 15.686l17.671 135.3s-17.671 5.275-34.55 0c0 0-7.988-74.207-7.998-74.301 0.413 3.84-7.403 10.837-9.919 12.882-14.686 11.934-34.579 9.901-49.467-0.05-19.365-12.942-27.781-38.043-28.885-60.382 0-1e-3 -2.373-48.067 38.244-52.254 0 0 20.276-1.947 42.153 26.66l-0.481-4.473s-5.012-22.155 18.726-22.155c0 0 19.252-1.319 26.374 12.921 2.807 5.614-0.898 7.596-5.24 10.084" fill="#371c1a"/></g><g transform="translate(241.14 668.73)"><path d="m0 0c48.769 0 80.967-34.475 88.3-88.299 7.328-53.83 39.536-88.299 88.299-88.299 48.767 0 88.298 39.531 88.298 88.299 0-97.535-79.062-176.6-176.6-176.6-97.533 0-176.6 79.067-176.6 176.6 0 48.768 39.533 88.299 88.296 88.299" fill="#f89a26"/></g><g transform="translate(487.47 526.29)"><path d="m0 0c11.628 14.952 18.572 33.729 18.572 54.142 0-14.031-1.64-27.683-4.734-40.765-4.11-4.953-8.76-9.426-13.838-13.377" fill="#fabf97"/></g><g transform="translate(417.74 492.13)"><path d="m0 0c-48.763 0-80.971 34.469-88.299 88.299-7.333 53.825-39.531 88.299-88.3 88.299-48.762 0-88.296-39.531-88.296-88.299 0 97.532 79.063 176.6 176.6 176.6 97.535 0 176.6-79.067 176.6-176.6 0-48.768-39.531-88.299-88.299-88.299" fill="#fff"/></g><g transform="translate(171.42 634.57)"><path d="m0 0c-11.623-14.949-18.572-33.728-18.572-54.136 0 14.029 1.644 27.678 4.739 40.767 4.105 4.946 8.752 9.424 13.833 13.369" fill="#c6c8c7"/></g><g transform="translate(388.07 581.96)"><path d="m0 0c-10.404 7.016-14.834 18.642-9.896 25.952 4.938 7.319 17.369 7.564 27.773 0.547 10.396-7.02 14.831-18.639 9.892-25.957-4.934-7.313-17.37-7.562-27.769-0.542" fill="#a55f3d"/></g><g transform="translate(359.56 429.17)"><path d="m0 0c2.432 2.916 2.094 5.035 0.981 6.009-1.595 1.391-4.722 0.016-6.606-1.633-29.768-26.054-74.871-25.8-105.44-5.556-1.22 0.808 1.53-2.794 6.244-7.621 20.457-9.564 43.051-15.32 66.869-16.362 14.25 4.376 27.455 12.581 37.952 25.163" fill="#f4692b"/></g><g transform="translate(327.35 448.01)"><path d="m0 0c2.582 2.782 2.363 4.916 1.302 5.947-1.517 1.474-4.715 0.27-6.682-1.276-31.123-24.425-76.149-21.761-105.59 0.092-2.637 1.959-6.22 1.737-8.603-0.347 11.512-10.939 24.493-20.343 38.625-27.881 28.373-6.121 59.306 0.165 80.952 23.465" fill="#f4692b"/></g><g transform="translate(294.22 472.48)"><path d="m0 0c2.741 2.626 2.646 4.767 1.643 5.865-1.419 1.552-4.688 0.537-6.747-0.891-32.48-22.581-77.274-17.302-105.4 6.218-0.882 0.738-1.896 1.184-2.943 1.412 6.637-10.329 14.321-19.912 22.902-28.617 29.939-11.209 65.264-8.213 90.543 16.013" fill="#f4692b"/></g><g transform="translate(447.73 550.86)"><path d="m0 0 1.077-7.645c1.215-8.643-4.811-16.629-13.459-17.844-8.642-1.214-16.632 4.807-17.846 13.449l-1.075 7.641z" fill="#ee2943"/></g><g transform="translate(209.8 575.85)"><path d="m0 0c-3.729-0.519-6.326-3.966-5.8-7.701 0.521-3.724 3.967-6.323 7.694-5.798 3.729 0.524 6.323 3.97 5.804 7.697-0.525 3.732-3.969 6.33-7.698 5.802" fill="#371c1a"/></g><g transform="translate(260.46 576.09)"><path d="m0 0c-0.525 3.729-3.974 6.322-7.7 5.802-3.728-0.524-6.328-3.974-5.798-7.7 0.521-3.723 3.969-6.324 7.696-5.798 3.727 0.521 6.323 3.967 5.802 7.696" fill="#371c1a"/></g><g transform="translate(242.25 614.55)"><path d="m0 0c8.604 1.975 14.784-5.035 17.413-9.207 1.866-2.97 2.437-5.62 4.569-5.419 2.136 0.208 2.606 2.418 2.077 6.173-1.597 11.316-11.973 20.906-25.616 19.297-5.909-0.696-11.115-3.866-14.754-8.568-4.793 3.517-10.669 5.129-16.542 4.174-13.553-2.214-20.888-14.296-19.302-25.614 0.528-3.759 1.592-5.752 3.694-5.362 2.11 0.395 1.93 3.099 2.906 6.472 1.373 4.728 5.379 13.174 14.197 13.645 3.787 0.204 6.629-1.829 8.11-3.707 1.486-1.892 1.97-3.861 2.294-5.963-4.158-4.881-7.529-12.143-5.7-14.4 2.75-3.396 14.935-1.294 14.935-1.294s12.293 1.339 14.003 5.363c1.148 2.699-4.231 8.86-9.638 12.389-0.253 2.058-0.307 4.043 0.586 6.224 0.903 2.209 3.074 4.946 6.768 5.797" fill="#371c1a"/></g><g transform="translate(341.58 599.87)"><path d="m0 0c4.979-3.87 9.8-4.652 14.238-3.714 9.092 1.937 16.593 11.123 20.536 15.961 2.399 2.938 3.144 5.725 1.689 6.904-1.449 1.179-3.735-0.273-6.858-2.575-14.152-10.442-18.488-8.089-21.027-5.524-3.068 3.106-3.627 13.557 12.022 35.482 4.012 5.625 6.23 5.76 7.59 5.653 4.373-0.363 15.79-9.539 20.124-12.708 3.067-2.247 6.394-4.429 7.931-3.126 1.525 1.29 0.747 4.135-1.582 7.133-10.352 13.364-18.443 22.804-28.257 22.609-7.945-0.15-13.498-6.681-16.993-11.575-26.316-36.881-13.861-51.049-9.413-54.52" fill="#371c1a"/></g><g transform="translate(300.62 560.85)"><path d="m0 0c-1.447-0.467-2.122-2.392-1.671-6.365 1.629-14.54-5.367-35.83-12.677-37.433-2.14-0.326-5 1.836-8.724 8.091-3.836 6.454-7.815 12.366-11.274 14.99-2.797 2.113-5.298 3.373-6.579 2.18-1.287-1.201 0.351-3.911 2.03-6.556 1.778-2.81 4.595-8.824 6.66-13.913 3.405-8.384 7.639-18.825 18.276-18.525 3.036 0.084 7.626 1.386 12.249 7.107 8.633 10.688 11.43 29.107 6.7 45.634-1.07 3.746-3.292 5.346-4.99 4.79" fill="#371c1a"/></g><g transform="translate(329.44 410.7)"><path d="m0 0c-57.571 0-108.53 28.82-139.24 72.784 1.773-0.822 3.569-1.496 5.365-1.978 7.1-1.917 11.581-0.274 14.089 1.445 8.78 6.012 6.072 16.948 3.899 25.728-1.326 5.332-2.578 11.854-2.792 15.169-0.202 3.131-0.47 6.286-2.212 6.5-1.738 0.212-3.022-2.277-4.039-5.632-1.259-4.153-1.003-11.274-0.316-18.751 0.67-7.252-0.375-10.681-2.306-11.677-5.43-2.376-17.97 5.369-26.535 15.019-10.032 21.648-15.644 45.739-15.644 71.121 0 44.896 36.531 81.429 81.426 81.429 44.004 0 74.471-30.788 81.494-82.359 3.837-28.202 14.393-51.793 30.513-68.22 2.436-2.482 5.001-4.765 7.668-6.9-2.248-1.766-4.13-3.983-5.505-6.584-5.315-10.06-1.34-22.644 8.776-27.967 17.369-9.14 40.238-10.192 53.653-8.675 5.011 0.565 7.087 2.359 6.872 3.771-0.221 1.465-2.348 2.722-6.734 3.036-14.646 1.063-33.486 2.117-46.712 11.221-5.065 3.487-5.467 8.856-3.704 12.193 0.859 1.628 2.301 2.824 4.058 3.366 1.759 0.542 3.624 0.37 5.251-0.491 0.149-0.081 0.309-0.123 0.46-0.188 12.131-5.796 25.782-8.803 40.509-8.803 26.475 0 50.466 10.871 67.732 28.378-25.986-60.477-86.139-102.94-156.03-102.94m0 339.45c56.314 0 106.3-27.571 137.19-69.921-5.094 2.8-12.02 5.537-18.616 2.748-9.045-3.815-12.593-15.728-16.618-32.15-0.904-3.684-0.463-6.6 1.459-7.156 1.932-0.563 4.085 2.781 5.975 6.074 2.666 4.659 9.366 17.688 13.216 19.798 1.199 0.655 3.274 1.435 9.232-2.074 23.211-13.666 26.952-23.44 25.412-27.526-1.272-3.373-4.281-7.29-21.455-3.509-3.788 0.835-6.472 1.234-7.315-0.436-0.846-1.669 0.966-3.909 4.351-5.621 5.574-2.813 16.159-8.156 25.252-6.225 1.858 0.397 3.647 1.121 5.325 2.204 4.115-14.614 6.316-30.017 6.316-45.929 0-44.901-36.526-81.427-81.426-81.427-44.003 0-74.469 30.789-81.487 82.354-3.844 28.205-14.397 51.795-30.519 68.221-2.434 2.48-5 4.767-7.663 6.904 2.242 1.762 4.129 3.978 5.5 6.577 5.318 10.061 1.34 22.644-8.772 27.97-17.374 9.14-40.238 10.19-53.658 8.673-5.011-0.566-7.084-2.356-6.869-3.772 0.221-1.462 2.347-2.719 6.732-3.036 14.646-1.058 33.485-2.117 46.713-11.219 5.065-3.49 5.472-8.856 3.704-12.196-0.865-1.628-2.302-2.822-4.059-3.364-1.759-0.54-3.622-0.368-5.251 0.495-0.14 0.071-0.288 0.11-0.433 0.175-12.139 5.802-25.796 8.815-40.537 8.815-26.474 0-50.456-10.881-67.723-28.394 25.982 60.484 86.135 102.95 156.02 102.95m0 13.742c-101.16 0-183.47-82.301-183.47-183.46 0-101.17 82.301-183.47 183.47-183.47 101.17 0 183.47 82.306 183.47 183.47 0 101.16-82.302 183.46-183.47 183.46" fill="#371c1a"/></g><g transform="translate(448.23 589.57)"><path d="m0 0c3.727 0.524 6.327 3.976 5.799 7.702-0.523 3.723-3.966 6.321-7.694 5.799-3.726-0.525-6.323-3.972-5.804-7.695 0.526-3.731 3.971-6.329 7.699-5.806" fill="#371c1a"/></g><g transform="translate(397.56 589.33)"><path d="m0 0c0.523-3.724 3.972-6.326 7.703-5.8 3.725 0.522 6.318 3.97 5.803 7.699-0.527 3.726-3.975 6.321-7.704 5.801-3.725-0.524-6.325-3.973-5.802-7.7" fill="#371c1a"/></g><g transform="translate(432.09 548.59)"><path d="m0 0c4.509-3.306 9.98-4.9 15.506-4.279-0.744-5.795-3.506-13.533-12.817-14.838-9.31-1.305-14.095 5.365-16.406 10.727 5.477 0.933 10.292 3.972 13.717 8.39m-16.317 2.277c-8.599-1.975-14.781 5.035-17.403 9.211-1.87 2.966-2.44 5.621-4.574 5.411-2.133-0.2-2.605-2.41-2.077-6.171 1.316-9.325 8.61-17.468 18.772-19.143 0.037-0.726 0.095-1.494 0.211-2.315 0.823-5.832 3.972-11.311 8.814-14.954 4.834-3.641 10.802-5.189 16.802-4.342 5.995 0.842 11.301 3.964 14.947 8.806 3.65 4.834 5.165 10.972 4.35 16.799-0.116 0.829-0.269 1.582-0.432 2.292 9.297 4.416 14.056 14.248 12.746 23.57-0.527 3.759-1.586 5.755-3.692 5.36-2.108-0.393-1.926-3.097-2.903-6.468-1.375-4.732-5.384-13.175-14.193-13.649-3.791-0.203-6.634 1.835-8.114 3.711-1.488 1.889-1.969 3.861-2.293 5.96 4.155 4.883 7.528 12.148 5.702 14.402-2.752 3.396-14.939 1.295-14.939 1.295s-12.295-1.339-14.003-5.363c-1.146-2.699 4.233-8.859 9.639-12.391 0.251-2.059 0.308-4.043-0.586-6.221-0.907-2.212-3.073-4.953-6.774-5.8" fill="#371c1a"/></g><g transform="translate(336.07 894.32)"><path d="m0 0zm-6.244 1.763c-9.655 0-28.597-7.518-58.71-28.93-8.968-6.376-17.614-13.044-25.186-19.126 30.228 9.13 53.498 17.949 69.416 26.321 19.817 10.422 21.717 16.725 21.896 17.883 0.164 1.056-0.873 1.871-1.243 2.125l-0.42 0.209-0.102 0.126c-1.287 0.892-3.161 1.392-5.651 1.392m-143.71-80.298 23.043 21c1.011 0.922 25.086 22.797 53.041 42.687 40.805 29.031 66.775 37.902 81.67 27.895 3.818-2.3 9.571-8.243 8.46-16.986-2.714-21.365-45.959-42.514-136.09-66.56z" fill="#371c1a"/></g><g transform="translate(329.83 894.08)"><path d="m0 0c-5.228 0-21.299-2.783-57.551-28.56-5.344-3.799-10.928-7.956-16.679-12.415 25.146 7.964 44.9 15.689 58.82 23.01 18.194 9.569 20.533 15.257 20.814 16.264-0.058 0.071-0.153 0.165-0.269 0.256l-0.666 0.332-0.175 0.217c-0.985 0.587-2.462 0.896-4.294 0.896m-93.183-50.95 8.035 6.453c8.795 7.065 17.3 13.524 25.279 19.197 26.573 18.895 47.835 29.3 59.869 29.3 2.831 0 5.116-0.588 6.79-1.748l0.515-0.33c1.54-1.057 2.32-2.583 2.088-4.081-0.369-2.382-3.339-9.037-22.942-19.346-15.982-8.406-39.456-17.31-69.768-26.466zm92.999 66.208c-14.948 0-36.521-10.328-66.279-31.499-27.948-19.885-51.849-41.619-52.852-42.535l-16.982-15.475 22.198 5.921c88.025 23.484 132.06 44.706 134.62 64.88 1.206 9.477-6.612 14.482-7.507 15.021-3.65 2.451-8.029 3.687-13.2 3.687m-150.93-97.602 29.105 26.524c1.01 0.922 25.084 22.815 53.229 42.838 41.587 29.588 68.262 38.463 83.944 27.926 4.983-2.999 10.486-9.794 9.329-18.898-2.868-22.579-45.293-43.625-137.56-68.241z" fill="#371c1a"/></g><g transform="translate(469.13 352.27)"><path d="m0 0h-267.61c-53.999 0-97.93 43.932-97.93 97.931v251.78c0 25.452 16.118 62.621 43.117 81.031 0.13 0.097 0.264 0.191 0.401 0.281l0.428 0.281c0.118 0.079 0.246 0.164 0.382 0.252l80.968 70.013c3.176 2.746 7.976 2.398 10.723-0.778 2.746-3.176 2.397-7.976-0.779-10.723l-81.355-70.347c-0.262-0.225-0.536-0.433-0.825-0.621-0.244-0.158-0.487-0.317-0.728-0.477l-0.131-0.086c-0.073-0.054-0.146-0.104-0.22-0.155-22.717-15.287-36.778-47.548-36.778-68.671v-251.78c0-45.616 37.111-82.727 82.727-82.727h267.61c45.615 0 82.727 37.111 82.727 82.727v251.78c0 25.243-11.057 46.194-34.795 65.937-17.66 14.686-107.45 81.793-144.99 105.71-3.541 2.255-4.584 6.955-2.328 10.496s6.958 4.581 10.496 2.328c38.809-24.719 128.19-91.575 146.55-106.84 27.479-22.852 40.278-47.518 40.278-77.626v-251.78c0-53.999-43.932-97.931-97.931-97.931" fill="#371c1a"/></g><g transform="translate(233.85 853.68)"><path d="m0 0c-1.299 0-2.604-0.448-3.661-1.362l-81.07-70.102-0.919-0.603c-0.101-0.067-0.202-0.137-0.299-0.21-26.514-18.082-42.316-54.57-42.316-79.43v-251.78c0-52.897 43.035-95.931 95.93-95.931h267.61c52.897 0 95.931 43.034 95.931 95.931v251.78c0 29.468-12.569 53.645-39.557 76.088-18.335 15.248-107.59 82.013-146.34 106.69-2.606 1.659-6.076 0.89-7.736-1.716-1.659-2.605-0.889-6.075 1.716-7.734 37.596-23.947 127.51-91.149 145.2-105.86 24.231-20.152 35.516-41.593 35.516-67.475v-251.78c0-46.719-38.008-84.727-84.727-84.727h-267.61c-46.719 0-84.727 38.008-84.727 84.727v251.78c0 21.636 14.399 54.677 37.662 70.331l0.37 0.252c0.237 0.158 0.487 0.321 0.737 0.483 0.204 0.134 0.411 0.289 0.609 0.46l81.351 70.344c1.132 0.979 1.815 2.34 1.924 3.833 0.108 1.492-0.371 2.937-1.35 4.069-1.106 1.279-2.67 1.935-4.241 1.935m235.28-503.41h-267.61c-55.102 0-99.93 44.829-99.93 99.931v251.78c0 25.899 16.454 63.907 43.991 82.684 0.09 0.07 0.257 0.187 0.428 0.299l0.7 0.46 80.869 69.928c4.006 3.462 10.082 3.021 13.544-0.983 1.677-1.94 2.499-4.417 2.313-6.975-0.185-2.558-1.356-4.891-3.296-6.568l-81.355-70.348c-0.336-0.289-0.685-0.551-1.041-0.784-0.242-0.155-0.478-0.31-0.712-0.466l-0.142-0.093c-0.013-0.012-0.104-0.076-0.196-0.138-22.176-14.924-35.9-46.405-35.9-67.016v-251.78c0-44.513 36.214-80.727 80.727-80.727h267.61c44.513 0 80.727 36.214 80.727 80.727v251.78c0 24.603-10.827 45.065-34.074 64.399-17.636 14.666-107.3 81.679-144.79 105.56-2.164 1.379-3.662 3.517-4.216 6.021-0.556 2.503-0.103 5.074 1.275 7.237 2.843 4.466 8.791 5.785 13.257 2.941 38.856-24.75 128.36-91.701 146.75-106.99 27.972-23.262 40.999-48.416 40.999-79.164v-251.78c0-55.102-44.829-99.931-99.931-99.931" fill="#371c1a"/></g></g></g></svg>
